Description
Pirates (original title)

Swash and unbuckle. In 1763, the Caribbean is awash in pirates. The worst is Stagnetti, backed by his bloodthirsty first mate, Serena. He wants the Scepter of Inca, which gives its owner great powers. To remove it from remote Calaveras Island, he needs the Dagger of Ataljuapa as well as the aid of a descendant of the family to whom the Scepter was entrusted. So, he kidnaps Manuel Valenzuela, honeymooning with the lovely Isabella. On Stagnetti's trail are pirate hunters, Captain Edward Reynolds and Jules, his commander. Edward's a bit clueless, but he does rescue Isabella. Once Stagnetti has the Dagger, the stage is set for the clash of good and evil.

Format : Matroska
Format version : Version 2
File size : 715 MiB
Duration : 1h 26mn
Overall bit rate : 1 149 Kbps
Encoded date : UTC 2013-05-21 10:08:08
Writing application : mkvmerge v5.8.0 ('No Sleep / Pillow') built on Sep 2 2012 15:37:04
Writing library : libebml v1.2.3 + libmatroska v1.3.0

Video
ID : 1
Format : AVC
Format/Info : Advanced Video Codec
Format profile : High@L4.1
Format settings, CABAC : Yes
Format settings, ReFrames : 4 frames
Muxing mode : Header stripping
Codec ID : V_MPEG4/ISO/AVC
Duration : 1h 26mn
Bit rate : 743 Kbps
Width : 720 pixels
Height : 400 pixels
Display aspect ratio : 16:9
Frame rate mode : Constant
Frame rate : 23.976 fps
Color space : YUV
Chroma subsampling : 4:2:0
Bit depth : 8 bits
Scan type : Progressive
Bits/(Pixel*Frame) : 0.108
Stream size : 462 MiB (65%)
Title : Pirates XxX( by fantasma )
Writing library : x264 core 130 r2273 b3065e6
Encoding settings : cabac=1 / ref=3 / deblock=1:0:0 / analyse=0x3:0x113 / me=hex / subme=7 / psy=1 / psy_rd=1.00:0.00 / mixed_ref=1 / me_range=16 / chroma_me=1 / trellis=1 / 8x8dct=1 / cqm=0 / deadzone=21,11 / fast_pskip=1 / chroma_qp_offset=-2 / threads=3 / lookahead_threads=1 / sliced_threads=0 / nr=0 / decimate=1 / interlaced=0 / bluray_compat=0 / constrained_intra=0 / bframes=3 / b_pyramid=2 / b_adapt=1 / b_bias=0 / direct=1 / weightb=1 / open_gop=0 / weightp=2 / keyint=240 / keyint_min=23 / scenecut=40 / intra_refresh=0 / rc_lookahead=40 / rc=crf / mbtree=1 / crf=23.0 / qcomp=0.60 / qpmin=0 / qpmax=69 / qpstep=4 / vbv_maxrate=24000 / vbv_bufsize=24000 / crf_max=0.0 / nal_hrd=none / ip_ratio=1.40 / aq=1:1.00
Language : Portuguese
Default : Yes
Forced : No

Audio
ID : 2
Format : AC-3
Format/Info : Audio Coding 3
Mode extension : CM (complete main)
Format settings, Endianness : Big
Muxing mode : Header stripping
Codec ID : A_AC3
Duration : 1h 26mn
Bit rate mode : Constant
Bit rate : 384 Kbps
Channel(s) : 6 channels
Channel positions : Front: L C R, Side: L R, LFE
Sampling rate : 48.0 KHz
Bit depth : 16 bits
Compression mode : Lossy
Stream size : 239 MiB (33%)
Title : por
Language : Portuguese
Default : Yes
Forced : No

Text #1
ID : 3
Format : VobSub
Muxing mode : zlib
Codec ID : S_VOBSUB
Codec ID/Info : The same subtitle format used on DVDs
Language : Portuguese
Default : No
Forced : No

Text #2
ID : 4
Format : UTF-8
Codec ID : S_TEXT/UTF8
Codec ID/Info : UTF-8 Plain Text
Title : Credito
Language : Portuguese
Default : Yes
Forced : No

Menu
00:00:00.000 : en:Chapter 01
00:01:58.000 : en:Chapter 02
00:03:42.000 : en:Chapter 03
00:05:50.000 : en:Chapter 04
00:08:06.000 : en:Chapter 05
00:11:18.000 : en:Chapter 06
00:16:37.000 : en:Chapter 07
00:19:50.500 : en:Chapter 08
00:22:51.000 : en:Chapter 09
00:33:11.000 : en:Chapter 10
00:35:23.000 : en:Chapter 11
00:40:12.000 : en:Chapter 12
00:42:14.000 : en:Chapter 13
00:45:40.000 : en:Chapter 14
00:53:31.500 : en:Chapter 15
00:56:17.000 : en:Chapter 16
01:04:01.000 : en:Chapter 17
01:06:42.000 : en:Chapter 18
01:10:15.000 : en:Chapter 19
01:24:32.000 : en:Chapter 20
